
<svg class='collector-type' version="1.1" id="Layer_1" xmlns="http://www.w3.org/2000/svg" xmlns:xlink="http://www.w3.org/1999/xlink" x="0px" y="0px"
	 viewBox="0 0 121 125.9" style="enable-background:new 0 0 121 125.9;" xml:space="preserve">
<style type="text/css">
	.inactive{fill:#53534A;}
</style>
<g>
	<path class="inactive" d="M64.8,89.3l-0.2-0.2L8.7,30v-4.8l45.7,3l61.2,55v3.6l-0.5,0L64.8,89.3z M9.7,29.6l55.6,58.7l49.4-2.4v-2.2
		L54,29.2l-44.3-3V29.6z"/>
</g>
<g>
	<polygon class="inactive" points="65.7,86.2 8.8,26.1 9.5,25.4 66.1,85.1 115.1,82.9 115.1,83.9 	"/>
</g>
<g>
	<path class="inactive" d="M64,125.9c-3.4,0-7.3-1.9-7.5-2l-0.3-0.1V80h1v43.2c0.9,0.4,4.1,1.8,6.8,1.8c2.4,0,4.1-0.4,4.7-0.7V88.5h1V125
		l-0.3,0.1C69.3,125.1,67.4,125.9,64,125.9z"/>
</g>
<g>
	<path class="inactive" d="M106.5,63H91.8v-1h13.9c0.1-0.6,0.1-1.5,0-2.1c-0.2-0.6-0.5-0.9-0.6-1H87.2v-1h18.1l0.1,0.1
		c0.1,0,0.8,0.5,1.2,1.7c0.4,1.2,0,2.9,0,3L106.5,63z"/>
</g>
<g>
	<path class="inactive" d="M28.3,27.3c-0.3-0.4-5.4-5.7-8.8-9.3c-0.6,0.1-1.3,0.3-1.5,0.5c-0.2,0.1-0.6,0.8-0.9,1.4l4.6,6.4l-0.8,0.6
		L16,20l0.1-0.3c0.2-0.4,0.8-1.6,1.3-2c0.5-0.4,1.8-0.6,2.2-0.7l0.3,0l0.2,0.2c2.7,2.7,8.9,9.2,9.2,9.6L28.3,27.3z"/>
</g>
<g>
	<path class="inactive" d="M565.3,377.1l-56.2-59.3V313l45.7,3l0.1,0.1l61.1,54.9v3.6l-0.5,0L565.3,377.1z M510.2,317.4l55.6,58.7
		l49.4-2.4v-2.2L554.5,317l-44.3-3V317.4z"/>
</g>
<g>
	<polygon class="inactive" points="566.3,374 509.3,313.9 510,313.2 566.7,373 615.6,370.7 615.6,371.7 	"/>
</g>
<g>
	<path class="inactive" d="M564.5,413.8c-3.4,0-7.3-1.9-7.5-2l-0.3-0.1v-43.8h1V411c0.9,0.4,4.1,1.8,6.8,1.8c2.4,0,4.1-0.4,4.7-0.7v-35.7
		h1v36.4l-0.3,0.1C569.8,412.9,567.9,413.8,564.5,413.8z"/>
</g>
<g>
	<path class="inactive" d="M607.1,350.8h-14.8v-1h13.9c0.1-0.6,0.1-1.5,0-2.1c-0.2-0.6-0.5-0.9-0.6-1h-17.8v-1h18.1l0.1,0.1
		c0.1,0,0.8,0.5,1.2,1.7c0.4,1.2,0,2.9,0,3L607.1,350.8z"/>
</g>
<g>
	<path class="inactive" d="M293.2,95.6l-0.2-0.2l-56-59.1v-4.8l45.7,3l61.2,55v3.6L293.2,95.6z M238.1,35.9l55.6,58.7l49.4-2.4V90
		l-60.6-54.4l-44.3-3V35.9z"/>
</g>
<g>
	<polygon class="inactive" points="294.2,92.5 237.2,32.4 237.9,31.7 294.6,91.5 343.5,89.3 343.5,90.3 	"/>
</g>
<g>
	<path class="inactive" d="M292.4,132.3c-3.4,0-7.3-1.9-7.5-2l-0.3-0.1V86.3h1v43.2c0.9,0.4,4.1,1.8,6.8,1.8c2.4,0,4.1-0.4,4.7-0.7V94.9
		h1v36.4l-0.3,0.1C297.7,131.5,295.8,132.3,292.4,132.3z"/>
</g>
<g>
	<path class="inactive" d="M400.3,371.4l-0.2-0.2l-56-59.1v-4.8l45.7,3l61.2,55v3.6l-0.5,0L400.3,371.4z M345.2,311.7l55.6,58.7l49.4-2.4
		v-2.2l-60.6-54.4l-44.3-3V311.7z"/>
</g>
<g>
	<polygon class="inactive" points="401.2,368.3 344.3,308.2 345,307.5 401.7,367.3 450.6,365.1 450.6,366.1 	"/>
</g>
<g>
	<path class="inactive" d="M399.5,408.1c-3.4,0-7.3-1.9-7.5-2l-0.3-0.1v-43.8h1v43.2c0.9,0.4,4.1,1.8,6.8,1.8c2.4,0,4.1-0.4,4.7-0.7
		v-35.7h1v36.4l-0.3,0.1C404.8,407.2,402.9,408.1,399.5,408.1z"/>
</g>
<g>
	<path class="inactive" d="M363.8,309.4c-0.3-0.4-5.4-5.7-8.8-9.3c-0.6,0.1-1.3,0.3-1.5,0.5c-0.2,0.1-0.6,0.8-0.9,1.4l4.6,6.4l-0.8,0.6
		l-4.9-6.8l0.1-0.3c0.2-0.4,0.8-1.6,1.3-2c0.5-0.4,1.8-0.6,2.2-0.7l0.3,0l0.2,0.2c2.7,2.7,8.9,9.2,9.2,9.6L363.8,309.4z"/>
</g>
<g>
	<g>
		<polygon class="inactive" points="89.5,48.6 91.4,48.4 93.3,48.2 92.2,46.7 91.1,45.2 90.3,46.9 		"/>
	</g>
	<g>
		<path class="inactive" d="M114.6,73.8c-0.1,0-0.3-0.1-0.4-0.2c-0.2-0.2-0.2-0.5,0-0.7c7-6.2,7.7-16.9,1.5-23.8
			c-6.2-7-16.9-7.7-23.8-1.5c-0.2,0.2-0.5,0.2-0.7,0c-0.2-0.2-0.2-0.5,0-0.7c7.4-6.5,18.7-5.8,25.3,1.6c6.5,7.4,5.8,18.7-1.6,25.3
			C114.9,73.8,114.8,73.8,114.6,73.8z"/>
	</g>
	<g>
		<polygon class="inactive" points="112.8,75.1 114.6,74.7 116.5,74.3 115.2,72.9 113.9,71.5 113.3,73.3 		"/>
	</g>
</g>
<g>
	<g>
		<polygon class="inactive" points="1.8,22.9 2.8,21.3 3.8,19.7 1.9,19.6 0,19.6 0.9,21.2 		"/>
	</g>
	<g>
		<path class="inactive" d="M2,20.8c-0.3,0-0.5-0.2-0.5-0.5C0.8,10.5,8.2,2,18.1,1.3c9.8-0.7,18.4,6.8,19.1,16.6c0,0.3-0.2,0.5-0.5,0.5
			c-0.3,0-0.5-0.2-0.5-0.5c-0.6-9.3-8.7-16.3-18-15.7C8.9,2.9,1.8,11,2.5,20.3C2.5,20.6,2.3,20.8,2,20.8C2,20.8,2,20.8,2,20.8z"/>
	</g>
	<g>
		<polygon class="inactive" points="37,20.5 37.8,18.8 38.5,17.1 36.7,17.2 34.8,17.4 35.9,19 		"/>
	</g>
</g>
<g>
	<g>
		<polygon class="inactive" points="336.7,306.8 337.7,305.2 338.6,303.5 336.7,303.5 334.8,303.6 335.8,305.2 		"/>
	</g>
	<g>
		<path class="inactive" d="M336.8,304.7c-0.3,0-0.5-0.2-0.5-0.4c-1-9.8,6.1-18.6,15.9-19.7c4.8-0.5,9.4,0.9,13.1,3.9c3.7,3,6,7.3,6.5,12
			c0,0.3-0.2,0.5-0.4,0.5c-0.3,0-0.5-0.2-0.5-0.4c-0.5-4.5-2.7-8.5-6.2-11.4c-3.5-2.8-7.9-4.1-12.4-3.7c-9.3,1-16,9.3-15,18.6
			C337.3,304.5,337.1,304.7,336.8,304.7C336.8,304.7,336.8,304.7,336.8,304.7z"/>
	</g>
	<g>
		<polygon class="inactive" points="371.8,303.1 372.5,301.4 373.2,299.6 371.4,299.9 369.5,300.1 370.7,301.6 		"/>
	</g>
</g>
<g>
	<g>
		<polygon class="inactive" points="591.3,336.3 593.2,336.1 595,335.9 593.9,334.4 592.8,332.8 592.1,334.6 		"/>
	</g>
	<g>
		<path class="inactive" d="M616.4,361.5c-0.1,0-0.3-0.1-0.4-0.2c-0.2-0.2-0.2-0.5,0-0.7c7-6.2,7.7-16.9,1.5-23.8
			c-6.2-7-16.9-7.7-23.8-1.5c-0.2,0.2-0.5,0.2-0.7,0c-0.2-0.2-0.2-0.5,0-0.7c7.4-6.5,18.7-5.8,25.3,1.6c6.5,7.4,5.8,18.7-1.6,25.3
			C616.7,361.4,616.5,361.5,616.4,361.5z"/>
	</g>
	<g>
		<polygon class="inactive" points="614.6,362.8 616.4,362.3 618.2,361.9 617,360.6 615.7,359.2 615.1,361 		"/>
	</g>
</g>
<g>
	<g>
		<path class="inactive" d="M68.2,81.7c-0.9,0-1.8-0.4-2.5-1L18.3,31.4c-0.3-0.3-0.4-0.8-0.2-1.2c0.2-0.4,0.6-0.6,1-0.6l33.3,2.1
			c0.8,0,1.5,0.4,2.1,0.9l51.1,45.9c0.3,0.3,0.4,0.7,0.3,1.1c-0.1,0.4-0.5,0.7-0.9,0.7l-36.5,1.3C68.3,81.7,68.3,81.7,68.2,81.7z
			 M19.1,30.6l47.4,49.3c0.5,0.5,1.1,0.8,1.8,0.7l36.5-1.3l-51.1-46c-0.4-0.4-0.9-0.6-1.5-0.6L19.1,30.6z"/>
	</g>
	<g>
		
			<rect x="19.2" y="55.3" transform="matrix(0.7089 0.7053 -0.7053 0.7089 55.2392 -22.2875)" class="inactive" width="70.9" height="1"/>
	</g>
	<g>
		<rect x="33.9" y="55.4" transform="matrix(0.7268 0.6868 -0.6868 0.7268 57.339 -32.2707)" class="inactive" width="70.6" height="1"/>
	</g>
	<g>
		<rect x="41.1" y="53.9" class="inactive" width="37.1" height="1"/>
	</g>
	<g>
		
			<rect x="29.6" y="41.9" transform="matrix(1 3.839598e-03 -3.839598e-03 1 0.1632 -0.1807)" class="inactive" width="35.1" height="1"/>
	</g>
	<g>
		
			<rect x="71.9" y="47.9" transform="matrix(2.147942e-02 0.9998 -0.9998 2.147942e-02 137.6587 -7.0276)" class="inactive" width="1" height="37.7"/>
	</g>
</g>
<g>
	<polygon class="inactive" points="83.4,66.6 82.9,68.8 77.4,66.8 78.6,64.2 	"/>
</g>
<g>
	<polygon class="inactive" points="70.1,54.5 69.5,56.7 64.1,54.7 65.3,52.2 	"/>
</g>
<g>
	<polygon class="inactive" points="57.6,42.5 57.1,44.7 51.6,42.7 52.9,40.2 	"/>
</g>
<g>
	<polygon class="inactive" points="44.1,42.5 43.6,44.7 38.1,42.7 39.4,40.2 	"/>
</g>
<g>
	<polygon class="inactive" points="68.4,66.8 67.9,69.1 62.4,67.1 63.7,64.5 	"/>
</g>
<g>
	<polygon class="inactive" points="56,54.5 55.4,56.7 50,54.7 51.2,52.2 	"/>
</g>
<g>
	<g>
		<path class="inactive" d="M568.8,369.5c-0.9,0-1.8-0.4-2.5-1l-47.5-49.3c-0.3-0.3-0.4-0.8-0.2-1.2c0.2-0.4,0.6-0.6,1-0.6l33.3,2.1
			c0.8,0,1.5,0.4,2.1,0.9l51.1,45.9c0.3,0.3,0.4,0.7,0.3,1.1c-0.1,0.4-0.5,0.7-0.9,0.7l-36.5,1.3
			C568.8,369.5,568.8,369.5,568.8,369.5z M519.6,318.4l47.4,49.3c0.5,0.5,1.1,0.8,1.8,0.7l36.5-1.3l-51.1-46
			c-0.4-0.4-0.9-0.6-1.5-0.6L519.6,318.4z"/>
	</g>
	<g>
		
			<rect x="519.7" y="343.1" transform="matrix(0.7089 0.7053 -0.7053 0.7089 403.9195 -291.5273)" class="inactive" width="70.9" height="1"/>
	</g>
	<g>
		
			<rect x="534.4" y="343.3" transform="matrix(0.7268 0.6868 -0.6868 0.7268 391.7424 -297.4216)" class="inactive" width="70.6" height="1"/>
	</g>
	<g>
		<rect x="541.7" y="341.8" class="inactive" width="37.1" height="1"/>
	</g>
	<g>
		
			<rect x="530.1" y="329.7" transform="matrix(1 3.839598e-03 -3.839598e-03 1 1.272 -2.1004)" class="inactive" width="35.1" height="1"/>
	</g>
	<g>
		
			<rect x="572.5" y="335.8" transform="matrix(2.147942e-02 0.9998 -0.9998 2.147942e-02 915.1858 -225.8111)" class="inactive" width="1" height="37.7"/>
	</g>
</g>
<g>
	<polygon class="inactive" points="583.9,354.4 583.4,356.6 577.9,354.6 579.2,352.1 	"/>
</g>
<g>
	<polygon class="inactive" points="570.6,342.3 570.1,344.5 564.6,342.5 565.9,340 	"/>
</g>
<g>
	<polygon class="inactive" points="558.1,330.3 557.6,332.6 552.2,330.5 553.4,328 	"/>
</g>
<g>
	<polygon class="inactive" points="544.7,330.3 544.1,332.6 538.7,330.5 539.9,328 	"/>
</g>
<g>
	<polygon class="inactive" points="569,354.7 568.4,356.9 563,354.9 564.2,352.3 	"/>
</g>
<g>
	<polygon class="inactive" points="556.5,342.3 556,344.5 550.5,342.5 551.8,340 	"/>
</g>
<g>
	<g>
		<path class="inactive" d="M296.7,88c-0.9,0-1.8-0.4-2.5-1l-47.5-49.3c-0.3-0.3-0.4-0.8-0.2-1.2c0.2-0.4,0.6-0.6,1-0.6l33.3,2.1
			c0.8,0,1.5,0.4,2.1,0.9L334,84.9c0.3,0.3,0.4,0.7,0.3,1.1s-0.5,0.7-0.9,0.7L296.8,88C296.7,88,296.7,88,296.7,88z M247.5,36.9
			l47.4,49.3c0.5,0.5,1.1,0.8,1.8,0.7l36.5-1.3l-51.1-46c-0.4-0.4-0.9-0.6-1.5-0.6L247.5,36.9z"/>
	</g>
	<g>
		
			<rect x="247.6" y="61.6" transform="matrix(0.7089 0.7053 -0.7053 0.7089 126.197 -181.5456)" class="inactive" width="70.9" height="1"/>
	</g>
	<g>
		
			<rect x="262.3" y="61.8" transform="matrix(0.7268 0.6868 -0.6868 0.7268 124.0924 -187.4269)" class="inactive" width="70.6" height="1"/>
	</g>
	<g>
		<rect x="269.6" y="60.3" class="inactive" width="37.1" height="1"/>
	</g>
	<g>
		<rect x="258" y="48.3" transform="matrix(1 3.839651e-03 -3.839651e-03 1 0.1893 -1.0577)" class="inactive" width="35.1" height="1"/>
	</g>
	<g>
		
			<rect x="300.3" y="54.3" transform="matrix(2.147942e-02 0.9998 -0.9998 2.147942e-02 367.5191 -229.1999)" class="inactive" width="1" height="37.7"/>
	</g>
</g>
<g>
	<polygon class="inactive" points="311.8,72.9 311.3,75.2 305.8,73.1 307.1,70.6 	"/>
</g>
<g>
	<polygon class="inactive" points="298.5,60.8 298,63.1 292.5,61.1 293.8,58.5 	"/>
</g>
<g>
	<polygon class="inactive" points="286,48.8 285.5,51.1 280.1,49.1 281.3,46.5 	"/>
</g>
<g>
	<polygon class="inactive" points="274.4,48.8 273.8,51.1 268.4,49.1 269.6,46.5 	"/>
</g>
<g>
	<polygon class="inactive" points="296.9,73.2 296.3,75.4 290.9,73.4 292.1,70.9 	"/>
</g>
<g>
	<polygon class="inactive" points="284.4,60.8 283.9,63.1 278.4,61.1 279.7,58.5 	"/>
</g>
<g>
	<g>
		<path class="inactive" d="M403.8,363.8c-0.9,0-1.8-0.4-2.5-1l-47.5-49.3c-0.3-0.3-0.4-0.8-0.2-1.2c0.2-0.4,0.6-0.6,1-0.6l33.3,2.1
			c0.8,0,1.5,0.4,2.1,0.9l51.1,45.9c0.3,0.3,0.4,0.7,0.3,1.1s-0.5,0.7-0.9,0.7l-36.5,1.3C403.8,363.8,403.8,363.8,403.8,363.8z
			 M354.6,312.7l47.4,49.3c0.5,0.5,1.1,0.8,1.8,0.7l36.5-1.3l-51.1-46c-0.4-0.4-0.9-0.6-1.5-0.6L354.6,312.7z"/>
	</g>
	<g>
		
			<rect x="354.7" y="337.4" transform="matrix(0.7089 0.7053 -0.7053 0.7089 351.8732 -176.8028)" class="inactive" width="70.9" height="1"/>
	</g>
	<g>
		
			<rect x="369.4" y="337.6" transform="matrix(0.7268 0.6868 -0.6868 0.7268 342.7585 -185.642)" class="inactive" width="70.6" height="1"/>
	</g>
	<g>
		<rect x="376.6" y="336.1" class="inactive" width="37.1" height="1"/>
	</g>
	<g>
		<rect x="365.1" y="324" transform="matrix(1 3.839598e-03 -3.839598e-03 1 1.249 -1.4668)" class="inactive" width="35.1" height="1"/>
	</g>
	<g>
		
			<rect x="407.4" y="330.1" transform="matrix(2.147942e-02 0.9998 -0.9998 2.147942e-02 748.0276 -66.4039)" class="inactive" width="1" height="37.7"/>
	</g>
</g>
<g>
	<polygon class="inactive" points="418.9,348.7 418.4,350.9 412.9,348.9 414.2,346.4 	"/>
</g>
<g>
	<polygon class="inactive" points="405.6,336.6 405.1,338.9 399.6,336.8 400.8,334.3 	"/>
</g>
<g>
	<polygon class="inactive" points="393.1,324.6 392.6,326.9 387.1,324.9 388.4,322.3 	"/>
</g>
<g>
	<polygon class="inactive" points="379.6,324.6 379.1,326.9 373.6,324.9 374.9,322.3 	"/>
</g>
<g>
	<polygon class="inactive" points="403.9,349 403.4,351.2 398,349.2 399.2,346.6 	"/>
</g>
<g>
	<polygon class="inactive" points="391.5,336.6 391,338.9 385.5,336.8 386.8,334.3 	"/>
</g>
</svg>
