
<svg class='collector-type' version="1.1" id="Layer_1" xmlns="http://www.w3.org/2000/svg" xmlns:xlink="http://www.w3.org/1999/xlink" x="0px" y="0px"
	 viewBox="0 0 121 125.9" style="enable-background:new 0 0 121 125.9;" xml:space="preserve">
<style type="text/css">
	.inactive{fill:#53534A;}
</style>
<g>
	<g>
		<path class="inactive" d="M468.6,97.2l-0.2-0.2l-56-59.1v-4.8l45.7,3l61.2,55v3.6l-0.5,0L468.6,97.2z M413.5,37.5l55.6,58.7l49.4-2.4
			v-2.2l-60.6-54.4l-44.3-3V37.5z"/>
	</g>
	<g>
		<polygon class="inactive" points="469.6,94.1 412.6,34 413.4,33.3 470,93.1 518.9,90.8 519,91.8 		"/>
	</g>
	<g>
		<path class="inactive" d="M467.8,133.8c-3.4,0-7.3-1.9-7.5-2l-0.3-0.1V87.9h1v43.2c0.9,0.4,4.1,1.8,6.8,1.8c2.4,0,4.1-0.4,4.7-0.7V96.4
			h1v36.4l-0.3,0.1C473.1,133,471.2,133.8,467.8,133.8z"/>
	</g>
	<g>
		<path class="inactive" d="M510.4,70.9h-14.8v-1h13.9c0.1-0.6,0.1-1.5,0-2.1c-0.2-0.6-0.5-0.9-0.6-1H491v-1h18.1l0.1,0.1
			c0.1,0,0.8,0.5,1.2,1.7c0.4,1.2,0,2.9,0,3L510.4,70.9z"/>
	</g>
	<g>
		<path class="inactive" d="M432.1,35.2c-0.3-0.4-5.4-5.7-8.8-9.3c-0.6,0.1-1.3,0.3-1.5,0.5c-0.2,0.1-0.6,0.8-0.9,1.4l4.6,6.4l-0.8,0.6
			l-4.9-6.8l0.1-0.3c0.2-0.4,0.8-1.6,1.3-2c0.5-0.4,1.8-0.6,2.2-0.7l0.3,0l0.2,0.2c2.7,2.7,8.9,9.2,9.2,9.6L432.1,35.2z"/>
	</g>
	<g>
		<g>
			<polygon class="inactive" points="493.4,56.5 495.2,56.3 497.1,56.1 496,54.6 494.9,53.1 494.1,54.8 			"/>
		</g>
		<g>
			<path class="inactive" d="M518.5,81.7c-0.1,0-0.3-0.1-0.4-0.2c-0.2-0.2-0.2-0.5,0-0.7c7-6.2,7.7-16.9,1.5-23.8
				c-6.2-7-16.9-7.7-23.8-1.5c-0.2,0.2-0.5,0.2-0.7,0c-0.2-0.2-0.2-0.5,0-0.7c7.4-6.5,18.7-5.8,25.3,1.6c6.5,7.4,5.8,18.7-1.6,25.3
				C518.7,81.7,518.6,81.7,518.5,81.7z"/>
		</g>
		<g>
			<polygon class="inactive" points="516.6,83 518.5,82.6 520.3,82.2 519,80.8 517.7,79.4 517.2,81.2 			"/>
		</g>
	</g>
	<g>
		<g>
			<polygon class="inactive" points="405.6,30.8 406.6,29.2 407.6,27.6 405.7,27.5 403.8,27.5 404.7,29.1 			"/>
		</g>
		<g>
			<path class="inactive" d="M405.8,28.7c-0.3,0-0.5-0.2-0.5-0.5c-0.7-9.8,6.8-18.4,16.6-19.1c9.8-0.7,18.4,6.8,19.1,16.6
				c0,0.3-0.2,0.5-0.5,0.5c-0.3,0-0.5-0.2-0.5-0.5c-0.6-9.3-8.7-16.3-18-15.7c-9.3,0.6-16.3,8.7-15.7,18
				C406.3,28.5,406.1,28.7,405.8,28.7C405.8,28.7,405.8,28.7,405.8,28.7z"/>
		</g>
		<g>
			<polygon class="inactive" points="440.8,28.4 441.6,26.7 442.4,25 440.5,25.2 438.6,25.3 439.7,26.9 			"/>
		</g>
	</g>
	<g>
		<g>
			<path class="inactive" d="M472.1,89.6c-0.9,0-1.8-0.4-2.5-1l-47.5-49.3c-0.3-0.3-0.4-0.8-0.2-1.2c0.2-0.4,0.6-0.6,1-0.6l33.3,2.1
				c0.8,0,1.5,0.4,2.1,0.9l51.1,45.9c0.3,0.3,0.4,0.7,0.3,1.1c-0.1,0.4-0.5,0.7-0.9,0.7l-36.5,1.3C472.2,89.6,472.1,89.6,472.1,89.6
				z M422.9,38.5l47.4,49.3c0.5,0.5,1.1,0.8,1.8,0.7l36.5-1.3l-51.1-46c-0.4-0.4-0.9-0.6-1.5-0.6L422.9,38.5z"/>
		</g>
		<g>
			
				<rect x="423" y="63.2" transform="matrix(0.7089 0.7053 -0.7053 0.7089 178.3563 -304.8015)" class="inactive" width="70.9" height="1"/>
		</g>
		<g>
			
				<rect x="437.8" y="63.4" transform="matrix(0.7268 0.6868 -0.6868 0.7268 173.0843 -307.4734)" class="inactive" width="70.6" height="1"/>
		</g>
		<g>
			<rect x="445" y="61.8" class="inactive" width="37.1" height="1"/>
		</g>
		<g>
			
				<rect x="433.4" y="49.8" transform="matrix(1 3.839598e-03 -3.839598e-03 1 0.1966 -1.7312)" class="inactive" width="35.1" height="1"/>
		</g>
		<g>
			
				<rect x="475.8" y="55.8" transform="matrix(2.147942e-02 0.9998 -0.9998 2.147942e-02 540.7274 -403.0374)" class="inactive" width="1" height="37.7"/>
		</g>
	</g>
	<g>
		<polygon class="inactive" points="487.2,74.5 486.7,76.7 481.2,74.7 482.5,72.2 		"/>
	</g>
	<g>
		<polygon class="inactive" points="473.9,62.4 473.4,64.6 467.9,62.6 469.2,60.1 		"/>
	</g>
	<g>
		<polygon class="inactive" points="461.5,50.4 460.9,52.6 455.5,50.6 456.7,48.1 		"/>
	</g>
	<g>
		<polygon class="inactive" points="448,50.4 447.4,52.6 442,50.6 443.2,48.1 		"/>
	</g>
	<g>
		<polygon class="inactive" points="472.3,74.8 471.8,77 466.3,75 467.5,72.4 		"/>
	</g>
	<g>
		<polygon class="inactive" points="459.8,62.4 459.3,64.6 453.8,62.6 455.1,60.1 		"/>
	</g>
</g>
<g>
	<g>
		<path class="inactive" d="M63.6,89.8L7.4,30.5v-4.8l45.7,3l0.1,0.1l61.1,54.9v3.6l-0.5,0L63.6,89.8z M8.4,30.1L64,88.8l49.4-2.4v-2.2
			L52.7,29.8l-44.3-3V30.1z"/>
	</g>
	<g>
		<polygon class="inactive" points="64.5,86.7 7.5,26.6 8.3,25.9 64.9,85.7 113.8,83.5 113.9,84.5 		"/>
	</g>
	<g>
		<path class="inactive" d="M62.7,126.5c-3.4,0-7.3-1.9-7.5-2l-0.3-0.1V80.5h1v43.2c0.9,0.4,4.1,1.8,6.8,1.8c2.4,0,4.1-0.4,4.7-0.7V89.1
			h1v36.4l-0.3,0.1C68,125.7,66.1,126.5,62.7,126.5z"/>
	</g>
	<g>
		<path class="inactive" d="M105.3,63.6H90.5v-1h13.9c0.1-0.6,0.1-1.5,0-2.1c-0.2-0.6-0.5-0.9-0.6-1H85.9v-1h18.1l0.1,0.1
			c0.1,0,0.8,0.5,1.2,1.7c0.4,1.2,0,2.9,0,3L105.3,63.6z"/>
	</g>
	<g>
		<g>
			<polygon class="inactive" points="89.5,49 91.4,48.8 93.3,48.6 92.2,47.1 91.1,45.6 90.3,47.3 			"/>
		</g>
		<g>
			<path class="inactive" d="M114.6,74.2c-0.1,0-0.3-0.1-0.4-0.2c-0.2-0.2-0.2-0.5,0-0.7c7-6.2,7.7-16.9,1.5-23.8
				c-6.2-7-16.9-7.7-23.8-1.5c-0.2,0.2-0.5,0.2-0.7,0c-0.2-0.2-0.2-0.5,0-0.7c7.4-6.5,18.7-5.8,25.3,1.6c6.5,7.4,5.8,18.7-1.6,25.3
				C114.9,74.2,114.8,74.2,114.6,74.2z"/>
		</g>
		<g>
			<polygon class="inactive" points="112.8,75.5 114.6,75.1 116.5,74.7 115.2,73.3 113.9,71.9 113.3,73.7 			"/>
		</g>
	</g>
	<g>
		<g>
			<path class="inactive" d="M67,82.2c-0.9,0-1.8-0.4-2.5-1L17.1,31.9c-0.3-0.3-0.4-0.8-0.2-1.2c0.2-0.4,0.6-0.6,1-0.6l33.3,2.1
				c0.8,0,1.5,0.4,2.1,0.9l51.1,45.9c0.3,0.3,0.4,0.7,0.3,1.1c-0.1,0.4-0.5,0.7-0.9,0.7l-36.5,1.3C67.1,82.2,67,82.2,67,82.2z
				 M17.8,31.2l47.4,49.3c0.5,0.5,1.1,0.8,1.8,0.7l36.5-1.3l-51.1-46c-0.4-0.4-0.9-0.6-1.5-0.6L17.8,31.2z"/>
		</g>
		<g>
			
				<rect x="17.9" y="55.8" transform="matrix(0.7089 0.7053 -0.7053 0.7089 55.2737 -21.2417)" class="inactive" width="70.9" height="1"/>
		</g>
		<g>
			<rect x="32.7" y="56" transform="matrix(0.7268 0.6868 -0.6868 0.7268 57.3842 -31.2586)" class="inactive" width="70.6" height="1"/>
		</g>
		<g>
			<rect x="39.9" y="54.5" class="inactive" width="37.1" height="1"/>
		</g>
		<g>
			
				<rect x="28.3" y="42.5" transform="matrix(1 3.839598e-03 -3.839598e-03 1 0.1654 -0.1759)" class="inactive" width="35.1" height="1"/>
		</g>
		<g>
			
				<rect x="70.7" y="48.5" transform="matrix(2.147942e-02 0.9998 -0.9998 2.147942e-02 136.9979 -5.2267)" class="inactive" width="1" height="37.7"/>
		</g>
	</g>
	<g>
		<polygon class="inactive" points="82.1,67.1 81.6,69.4 76.1,67.4 77.4,64.8 		"/>
	</g>
	<g>
		<polygon class="inactive" points="68.8,55 68.3,57.3 62.8,55.3 64.1,52.7 		"/>
	</g>
	<g>
		<polygon class="inactive" points="56.4,43.1 55.9,45.3 50.4,43.3 51.6,40.7 		"/>
	</g>
	<g>
		<polygon class="inactive" points="42.9,43.1 42.4,45.3 36.9,43.3 38.2,40.7 		"/>
	</g>
	<g>
		<polygon class="inactive" points="67.2,67.4 66.7,69.7 61.2,67.7 62.5,65.1 		"/>
	</g>
	<g>
		<polygon class="inactive" points="54.7,55 54.2,57.3 48.7,55.3 50,52.7 		"/>
	</g>
</g>
<g>
	<g>
		<path class="inactive" d="M273.6,101.8l-0.2-0.2l-56-59.1v-4.8l45.7,3l61.2,55v3.6L273.6,101.8z M218.4,42.1l55.6,58.7l49.4-2.4v-2.2
			l-60.6-54.4l-44.3-3V42.1z"/>
	</g>
	<g>
		<polygon class="inactive" points="274.5,98.7 217.5,38.7 218.3,38 274.9,97.7 323.8,95.5 323.9,96.5 		"/>
	</g>
	<g>
		<path class="inactive" d="M272.7,138.5c-3.4,0-7.3-1.9-7.5-2l-0.3-0.1V92.5h1v43.2c0.9,0.4,4.1,1.8,6.8,1.8c2.4,0,4.1-0.4,4.7-0.7
			v-35.7h1v36.4l-0.3,0.1C278,137.7,276.1,138.5,272.7,138.5z"/>
	</g>
	<g>
		<g>
			<path class="inactive" d="M277,94.3c-0.9,0-1.8-0.4-2.5-1l-47.5-49.3c-0.3-0.3-0.4-0.8-0.2-1.2c0.2-0.4,0.6-0.6,1-0.6l33.3,2.1
				c0.8,0,1.5,0.4,2.1,0.9l51.1,45.9c0.3,0.3,0.4,0.7,0.3,1.1s-0.5,0.7-0.9,0.7l-36.5,1.3C277.1,94.3,277,94.3,277,94.3z
				 M227.8,43.2l47.4,49.3c0.5,0.5,1.1,0.8,1.8,0.7l36.5-1.3l-51.1-46c-0.4-0.4-0.9-0.6-1.5-0.6L227.8,43.2z"/>
		</g>
		<g>
			
				<rect x="227.9" y="67.9" transform="matrix(0.7089 0.7053 -0.7053 0.7089 124.8698 -165.8552)" class="inactive" width="70.9" height="1"/>
		</g>
		<g>
			
				<rect x="242.7" y="68" transform="matrix(0.7268 0.6868 -0.6868 0.7268 123.0021 -172.2112)" class="inactive" width="70.6" height="1"/>
		</g>
		<g>
			<rect x="249.9" y="66.5" class="inactive" width="37.1" height="1"/>
		</g>
		<g>
			
				<rect x="238.3" y="54.5" transform="matrix(1 3.839651e-03 -3.839651e-03 1 0.2131 -0.9821)" class="inactive" width="35.1" height="1"/>
		</g>
		<g>
			
				<rect x="280.7" y="60.5" transform="matrix(2.147942e-02 0.9998 -0.9998 2.147942e-02 354.504 -203.4279)" class="inactive" width="1" height="37.7"/>
		</g>
	</g>
	<g>
		<polygon class="inactive" points="292.1,79.1 291.6,81.4 286.1,79.4 287.4,76.8 		"/>
	</g>
	<g>
		<polygon class="inactive" points="278.8,67.1 278.3,69.3 272.8,67.3 274.1,64.7 		"/>
	</g>
	<g>
		<polygon class="inactive" points="266.4,55.1 265.9,57.3 260.4,55.3 261.7,52.7 		"/>
	</g>
	<g>
		<polygon class="inactive" points="254.7,55.1 254.2,57.3 248.7,55.3 250,52.7 		"/>
	</g>
	<g>
		<polygon class="inactive" points="277.2,79.4 276.7,81.7 271.2,79.7 272.5,77.1 		"/>
	</g>
	<g>
		<polygon class="inactive" points="264.7,67.1 264.2,69.3 258.7,67.3 260,64.7 		"/>
	</g>
</g>
<g>
	<g>
		<path class="inactive" d="M795.6,151.6l-0.2-0.2l-56-59.1v-4.8l45.7,3l61.2,55v3.6l-0.5,0L795.6,151.6z M740.5,91.9l55.6,58.7l49.4-2.4
			V146l-60.6-54.4l-44.3-3V91.9z"/>
	</g>
	<g>
		<polygon class="inactive" points="796.6,148.5 739.6,88.4 740.4,87.7 797,147.5 845.9,145.3 846,146.3 		"/>
	</g>
	<g>
		<path class="inactive" d="M794.8,188.3c-3.4,0-7.3-1.9-7.5-2l-0.3-0.1v-43.8h1v43.2c0.9,0.4,4.1,1.8,6.8,1.8c2.4,0,4.1-0.4,4.7-0.7
			v-35.7h1v36.4l-0.3,0.1C800.1,187.5,798.2,188.3,794.8,188.3z"/>
	</g>
	<g>
		<path class="inactive" d="M759.2,89.6c-0.3-0.4-5.4-5.7-8.8-9.3c-0.6,0.1-1.3,0.3-1.5,0.5c-0.2,0.1-0.6,0.8-0.9,1.4l4.6,6.4l-0.8,0.6
			l-4.9-6.8l0.1-0.3c0.2-0.4,0.8-1.6,1.3-2c0.5-0.4,1.8-0.6,2.2-0.7l0.3,0l0.2,0.2c2.7,2.7,8.9,9.2,9.2,9.6L759.2,89.6z"/>
	</g>
	<g>
		<g>
			<polygon class="inactive" points="732.1,87 733,85.4 733.9,83.7 732,83.8 730.1,83.8 731.1,85.4 			"/>
		</g>
		<g>
			<path class="inactive" d="M732.1,85c-0.3,0-0.5-0.2-0.5-0.4c-1-9.8,6.1-18.6,15.9-19.7c4.8-0.5,9.4,0.9,13.1,3.9c3.7,3,6,7.3,6.5,12
				c0,0.3-0.2,0.5-0.4,0.5c-0.3,0-0.5-0.2-0.5-0.4c-0.5-4.5-2.7-8.5-6.2-11.4c-3.5-2.8-7.9-4.1-12.4-3.7c-9.3,1-16,9.3-15,18.6
				C732.7,84.7,732.5,84.9,732.1,85C732.2,85,732.2,85,732.1,85z"/>
		</g>
		<g>
			<polygon class="inactive" points="767.1,83.3 767.9,81.6 768.6,79.9 766.7,80.1 764.8,80.4 766,81.8 			"/>
		</g>
	</g>
	<g>
		<g>
			<path class="inactive" d="M799.1,144c-0.9,0-1.8-0.4-2.5-1l-47.5-49.3c-0.3-0.3-0.4-0.8-0.2-1.2c0.2-0.4,0.6-0.6,1-0.6l33.3,2.1
				c0.8,0,1.5,0.4,2.1,0.9l51.1,45.9c0.3,0.3,0.4,0.7,0.3,1.1s-0.5,0.7-0.9,0.7l-36.5,1.3C799.2,144,799.1,144,799.1,144z M749.9,93
				l47.4,49.3c0.5,0.5,1.1,0.8,1.8,0.7l36.5-1.3l-51.1-46c-0.4-0.4-0.9-0.6-1.5-0.6L749.9,93z"/>
		</g>
		<g>
			
				<rect x="750" y="117.6" transform="matrix(0.7089 0.7053 -0.7053 0.7089 311.9331 -519.5898)" class="inactive" width="70.9" height="1"/>
		</g>
		<g>
			
				<rect x="764.8" y="117.8" transform="matrix(0.7268 0.6868 -0.6868 0.7268 299.7996 -517.1965)" class="inactive" width="70.6" height="1"/>
		</g>
		<g>
			<rect x="772" y="116.3" class="inactive" width="37.1" height="1"/>
		</g>
		<g>
			
				<rect x="760.4" y="104.3" transform="matrix(1 3.839598e-03 -3.839598e-03 1 0.408 -2.9864)" class="inactive" width="35.1" height="1"/>
		</g>
		<g>
			
				<rect x="802.8" y="110.3" transform="matrix(2.147942e-02 0.9998 -0.9998 2.147942e-02 915.1332 -676.7027)" class="inactive" width="1" height="37.7"/>
		</g>
	</g>
	<g>
		<polygon class="inactive" points="814.2,128.9 813.7,131.2 808.2,129.2 809.5,126.6 		"/>
	</g>
	<g>
		<polygon class="inactive" points="800.9,116.8 800.4,119.1 794.9,117.1 796.2,114.5 		"/>
	</g>
	<g>
		<polygon class="inactive" points="788.5,104.8 788,107.1 782.5,105.1 783.7,102.5 		"/>
	</g>
	<g>
		<polygon class="inactive" points="775,104.8 774.5,107.1 769,105.1 770.2,102.5 		"/>
	</g>
	<g>
		<polygon class="inactive" points="799.3,129.2 798.8,131.4 793.3,129.4 794.6,126.9 		"/>
	</g>
	<g>
		<polygon class="inactive" points="786.8,116.8 786.3,119.1 780.8,117.1 782.1,114.5 		"/>
	</g>
</g>
</svg>
